<svg width="38" height="38" fill="none" xmlns="http://www.w3.org/2000/svg"><path d="M13.643 6.522a.533.533 0 0 0-.666-.355 6.607 6.607 0 0 0-2.923 1.638 8.1 8.1 0 0 0-1.69 2.766c-.16.473-.291.955-.394 1.444l-.054.23a.533.533 0 1 0 1.039.244l.053-.232c.094-.445.213-.885.357-1.317a7.06 7.06 0 0 1 1.464-2.4 5.586 5.586 0 0 1 2.458-1.35.533.533 0 0 0 .356-.668ZM7.798 14.73a.533.533 0 1 0 0-1.066.533.533 0 0 0 0 1.067Zm7.907 7.25c-.214.274-.333.43-.333.43a.533.533 0 1 0 .854.64c0-.002.113-.151.32-.41a.534.534 0 0 0-.84-.66h-.001Zm2.175-2.61c-.224.255-.436.5-.636.734a.533.533 0 1 0 .81.693c.197-.229.405-.47.626-.72a.534.534 0 1 0-.8-.706Zm2.323-2.48c-.232.232-.46.463-.681.694a.534.534 0 0 0 .77.739c.216-.226.438-.453.665-.68a.534.534 0 1 0-.754-.754v.001Zm-.137-3.226a2.136 2.136 0 0 0-.789-1.653 2.133 2.133 0 0 0-3.734-2.059 2.145 2.145 0 0 0-2.403 2.293 2.133 2.133 0 0 0 1.592 3.552h3.2a2.133 2.133 0 0 0 2.134-2.133Zm-1.38.754c-.199.2-.47.313-.753.313h-3.2a1.067 1.067 0 0 1-.716-1.858.533.533 0 0 0 .213-.548 1.067 1.067 0 0 1 1.036-1.327c.134 0 .266.026.39.077a.534.534 0 0 0 .718-.356 1.067 1.067 0 0 1 2.092.278c.002.295-.12.576-.338.775a.533.533 0 0 0 .177.894 1.064 1.064 0 0 1 .381 1.752Z" fill="#fff"/><path d="M34.468 20.064a2.133 2.133 0 0 0-2.08-2.128l2.605-14.31a.46.46 0 0 0 0-.046.547.547 0 0 0 0-.125v-.02c0-.006 0-.005-.004-.008a.548.548 0 0 0-.02-.056.528.528 0 0 0-.041-.098c-.007-.012-.01-.026-.018-.037-.007-.011-.024-.025-.035-.04-.01-.013-.017-.029-.03-.042-.012-.013-.029-.018-.042-.03-.014-.01-.023-.024-.037-.034-.014-.01-.025-.01-.037-.018a.505.505 0 0 0-.1-.042.382.382 0 0 0-.054-.02c-.004 0-.006-.003-.01-.003h-.019a.506.506 0 0 0-.127 0c-.015 0-.03-.004-.045 0L25.721 4.58a12.319 12.319 0 0 0-6.712-1.565c-1.735.12-3.46.367-5.16.74-2.404.48-4.152 1.323-5.345 2.584a10.218 10.218 0 0 0-2.14 3.489c-.192.558-.35 1.126-.472 1.703l-.054.225a6.959 6.959 0 0 1-.456 1.215c-.106.243-.217.486-.313.738a1.78 1.78 0 0 0-.14.892c.107.477.382.9.776 1.192.261.239.432.408.435.554a.877.877 0 0 1-.091.232 20.632 20.632 0 0 1-2.334 3.792c-.386.47-.792 1.02-.706 1.568.113.424.392.785.774 1 .175.122.36.229.554.32.23.118.617.315.644.453a.927.927 0 0 1-.063.54 5.95 5.95 0 0 1-.235.444c-.195.345-.522.923-.029 1.326.115.107.314.26.496.4a1.343 1.343 0 0 0-.174.77.77.77 0 0 0 .317.524c.118.083.244.156.369.227.315.179.439.263.48.43.03.215.011.433-.054.64a4.87 4.87 0 0 0-.08.427c-.053.486.007.978.176 1.437A1.998 1.998 0 0 0 8.07 32.33c.147 0 .294-.016.437-.047a40.473 40.473 0 0 0 4.498-1.345c1.201.705 1.96 2.849 2.158 3.654.06.238.273.404.518.404l13.388-.037a.533.533 0 0 0 .508-.693 4.118 4.118 0 0 0-.54-1.014 4.975 4.975 0 0 1-.345-.577 10.046 10.046 0 0 1-.603-1.517 17.883 17.883 0 0 1-.63-3.155 9.024 9.024 0 0 1 .7-4.684c.016-.035.036-.07.054-.107.392.374.912.583 1.454.585h3.2a2.134 2.134 0 0 0 1.592-3.551c.008-.062.008-.122.008-.182Zm-6.876-5.26 5.89-8.833-2.271 12.493a.27.27 0 0 0-.006.036l-.079.426-3.534-4.122Zm4.436-10.287-8.834 5.889-4.123-3.534 12.957-2.355Zm-5.48 6.933a.533.533 0 0 0-.755 0L23.2 14.044l.442-2.655 8.907-5.935-5.939 8.903-2.656.443 2.594-2.595a.533.533 0 0 0 0-.755Zm-.146 16.683c.123 1.132.347 2.251.67 3.344.176.573.398 1.131.663 1.669.122.241.26.474.413.697l.036.053-12.099.034a8.495 8.495 0 0 0-1.877-3.406l.48-.168c.357-.125.627-.219.765-.263 2.285-.723 3.427-1.763 3.396-3.093a.533.533 0 0 0-.533-.52h-.01a.533.533 0 0 0-.52.545c.013.549-.437 1.35-2.654 2.05a44.49 44.49 0 0 0-.793.273c-.396.139-.9.315-1.456.504h-.004a41.483 41.483 0 0 1-4.587 1.386.945.945 0 0 1-1.098-.71 2.128 2.128 0 0 1-.125-.952c.014-.112.04-.223.064-.335.108-.368.124-.758.046-1.134a1.77 1.77 0 0 0-.988-1.092l-.11-.063c.058-.116.126-.226.205-.33a.533.533 0 0 0-.102-.759c-.128-.093-.43-.32-.65-.498l.08-.144a7.39 7.39 0 0 0 .272-.514 2 2 0 0 0 .143-1.194c-.128-.65-.752-.97-1.206-1.202a3.089 3.089 0 0 1-.44-.255 2.314 2.314 0 0 1-.318-.259c0-.081.087-.277.493-.772a21.527 21.527 0 0 0 2.443-3.965c.125-.22.195-.468.205-.72a1.866 1.866 0 0 0-.779-1.334c-.213-.198-.419-.385-.443-.559a.96.96 0 0 1 .084-.364c.087-.229.187-.453.288-.678a7.78 7.78 0 0 0 .521-1.406l.054-.227c.112-.533.257-1.059.434-1.574A9.145 9.145 0 0 1 9.28 7.072c1.02-1.08 2.627-1.843 4.782-2.271a34.616 34.616 0 0 1 5.002-.72c1.668-.102 3.336.18 4.878.822l-6.163 1.12a.533.533 0 0 0-.252.93l5.052 4.329-.671 4.026a.525.525 0 0 0 .424.84.536.536 0 0 0 .107-.02c.017 0 .034 0 .05-.004l4.23-.705 1.871 2.183a2.129 2.129 0 0 0-.265 2.409 2.136 2.136 0 0 0-.79 1.653c.002.15.02.3.053.446a7.656 7.656 0 0 0-.403.786 10.1 10.1 0 0 0-.782 5.237Zm6.466-5.403h-3.2a1.06 1.06 0 0 1-1.01-.728 1.004 1.004 0 0 1-.057-.338c0-.445.277-.843.693-.998a.533.533 0 0 0 .177-.895 1.037 1.037 0 0 1-.337-.774c.001-.2.059-.395.166-.563l1.746 2.037a.533.533 0 0 0 .93-.252l.219-1.208c.046-.008.093-.012.14-.014a1.067 1.067 0 0 1 1.036 1.328.581.581 0 0 0 .207.543l.044.042a1.067 1.067 0 0 1-.754 1.82Z" fill="#fff"/></svg>