<svg width="16" height="16" fill="none" xmlns="http://www.w3.org/2000/svg"><g clip-path="url(#a)" fill="#222" fill-opacity=".62"><path d="M8.003 3.892a4.105 4.105 0 1 0-.001 8.21 4.105 4.105 0 0 0 0-8.21Zm0 6.77a2.664 2.664 0 1 1 0-5.33 2.664 2.664 0 1 1 0 5.33Z"/><path d="M11.299.05C9.827-.017 6.18-.014 4.707.05 3.413.112 2.271.425 1.35 1.345-.19 2.885.008 4.957.008 7.997c0 3.112-.173 5.137 1.342 6.653 1.545 1.544 3.648 1.342 6.653 1.342 3.082 0 4.146.002 5.236-.42 1.482-.575 2.6-1.9 2.71-4.28.07-1.472.066-5.117 0-6.59C15.817 1.891 14.31.188 11.3.05Zm2.33 13.582c-1.01 1.008-2.408.918-5.646.918-3.333 0-4.67.05-5.645-.928-1.123-1.118-.92-2.913-.92-5.635 0-3.684-.378-6.337 3.319-6.526.849-.03 1.099-.04 3.237-.04l.03.02c3.553 0 6.34-.372 6.507 3.324.038.844.047 1.097.047 3.232 0 3.294.062 4.639-.93 5.635Z"/><path d="M12.27 4.69a.96.96 0 1 0 0-1.92.96.96 0 0 0 0 1.92Z"/></g><defs><clipPath id="a"><path fill="#fff" d="M0 0h16v16H0z"/></clipPath></defs></svg>