<svg width="38" height="38" fill="none" xmlns="http://www.w3.org/2000/svg"><path d="M33.452 31.903h-.517V25.71h-.824C33.234 24.456 35 22.009 35 19c0-4.337-4.159-7.506-4.335-7.639l-.371-.278-1.367 1.464c.73-3.058.505-6.278-.673-9.223L28.124 3h-.866l-.149.022a10.196 10.196 0 0 0-5.418 3.923 16.522 16.522 0 0 0-.883-.88l-.563-.516c-.682-.625-1.81-.625-2.49 0l-.564.516c-.308.282-.599.578-.883.88a10.2 10.2 0 0 0-5.418-3.923L9.876 3l-.13.325a15.28 15.28 0 0 0-.673 9.223l-1.366-1.464-.372.277C7.158 11.494 3 14.663 3 19c0 3.009 1.766 5.456 2.889 6.71h-.824v6.193h-.517A1.55 1.55 0 0 0 3 33.452V35h32v-1.548a1.55 1.55 0 0 0-1.548-1.549ZM30.4 12.481c.966.842 3.567 3.396 3.567 6.519 0 3.402-2.67 6.118-3.298 6.71h-5.833l.8-2.934a16.7 16.7 0 0 0 .589-4.396c0-.456-.024-.908-.062-1.36l4.237-4.539Zm-3.066-8.449h.085a14.255 14.255 0 0 1 .082 9.715l-.185.526-1.314 1.407a16.772 16.772 0 0 0-3.607-7.935 9.17 9.17 0 0 1 4.939-3.713Zm-9.446 2.794.563-.516a.83.83 0 0 1 1.096 0l.563.516a15.712 15.712 0 0 1 5.082 11.554c0 1.394-.185 2.782-.552 4.125l-.874 3.205h-1.07l.948-3.477c.342-1.255.516-2.55.516-3.853a14.68 14.68 0 0 0-4.748-10.794L19 7.21l-.413.377a14.681 14.681 0 0 0-4.748 10.794c0 1.302.173 2.598.516 3.853l.948 3.477h-1.07l-.874-3.206a15.67 15.67 0 0 1-.552-4.124c0-4.381 1.852-8.593 5.082-11.554Zm1.84 16.303 1.852-1.85.986.986-.793 2.908-2.044-2.044Zm-4.837-5.485 1.527-1.527 1.851 1.85-1.85 1.852-1.547-1.546c.003-.21.008-.42.02-.629Zm8.234.629-1.545 1.546-1.851-1.851 1.85-1.851 1.528 1.527c.011.21.016.419.018.629ZM19 17.238l-1.85-1.85L19 13.535l1.85 1.851-1.85 1.85Zm0 1.46 1.85 1.85L19 22.4l-1.85-1.85L19 18.697Zm3.855 2.395-.544-.545.735-.735c-.046.43-.104.857-.19 1.28Zm-3.125-8.287 1.444-1.444a13.67 13.67 0 0 1 1.738 4.626l-3.182-3.181Zm-.73-.73-1.595-1.595A13.543 13.543 0 0 1 19 8.616a13.578 13.578 0 0 1 1.595 1.865L19 12.077Zm-2.174-.714 1.444 1.444-3.182 3.182a13.683 13.683 0 0 1 1.738-4.626Zm-1.136 9.186-.545.545a13.744 13.744 0 0 1-.191-1.28l.736.735Zm.73.73 1.85 1.851-2.055 2.056-.783-2.92.987-.987Zm2.58 2.58 1.85 1.852h-3.7L19 23.859Zm-8.502-10.11a14.255 14.255 0 0 1 .082-9.716h.085a9.174 9.174 0 0 1 4.94 3.713 16.767 16.767 0 0 0-3.607 7.936l-1.314-1.408-.186-.526ZM4.032 19c0-3.123 2.601-5.677 3.567-6.519l4.237 4.54c-.037.45-.062.903-.062 1.36a16.7 16.7 0 0 0 .59 4.395l.8 2.934H7.33c-.628-.592-3.298-3.308-3.298-6.71Zm2.065 7.742h25.806v5.161H29.84v-1.548a2.584 2.584 0 0 0-2.58-2.58 2.584 2.584 0 0 0-2.582 2.58v1.548h-2.064v-.516A3.617 3.617 0 0 0 19 27.774a3.617 3.617 0 0 0-3.613 3.613v.516h-2.064v-1.548a2.584 2.584 0 0 0-2.581-2.58 2.584 2.584 0 0 0-2.58 2.58v1.548H6.096v-5.161Zm22.71 5.161H25.71v-1.548a1.55 1.55 0 0 1 1.548-1.549 1.55 1.55 0 0 1 1.548 1.549v1.548Zm-7.226 0h-5.162v-.516A2.584 2.584 0 0 1 19 28.807a2.584 2.584 0 0 1 2.58 2.58v.516Zm-9.29 0H9.193v-1.548a1.55 1.55 0 0 1 1.548-1.549 1.55 1.55 0 0 1 1.548 1.549v1.548Zm21.677 2.065H4.032v-.516c0-.285.232-.517.516-.517h28.904c.284 0 .516.232.516.517v.516Z" fill="#fff"/><path d="M6.494 23.132c.195.289.41.575.64.852l.796-.656a10.586 10.586 0 0 1-.583-.775l-.853.58ZM6.097 19H5.064c0 .368.038.746.111 1.124l1.014-.197A4.864 4.864 0 0 1 6.097 19Zm.35 1.838-.967.36c.123.331.274.668.45 1.001l.913-.483a7.395 7.395 0 0 1-.396-.878Zm24.9.495.937.432c.433-.938.652-1.868.652-2.765 0-1.093-.38-2.23-1.129-3.379l-.865.564c.638.978.961 1.925.961 2.815 0 .747-.187 1.532-.556 2.333Zm.298 1.591-.868-.56c-.207.322-.44.641-.694.948l.797.656c.28-.338.536-.69.765-1.044Z" fill="#fff"/></svg>