<svg width="38" height="38" fill="none" xmlns="http://www.w3.org/2000/svg"><path d="M19.063 3c-5.595-.04-10.017 3.906-11.054 8.8-.763 3.599.177 7.212 2.58 9.913a7.387 7.387 0 0 1 1.848 4.85v1.875c0 1.248.817 2.308 1.945 2.675A4.695 4.695 0 0 0 19 35a4.695 4.695 0 0 0 4.618-3.888 2.817 2.817 0 0 0 1.945-2.675V26.56c0-1.74.694-3.53 1.903-4.91A11.243 11.243 0 0 0 19.062 3ZM19 33.125a2.823 2.823 0 0 1-2.652-1.882h5.304A2.823 2.823 0 0 1 19 33.125Zm4.688-4.688c0 .517-.42.937-.938.937h-7.5a.939.939 0 0 1-.938-.937v-.938h9.376v.938Zm-5.625-10.439h-.938a2.816 2.816 0 0 1-2.813-2.813v-.937h.938a2.816 2.816 0 0 1 2.813 2.813v.937Zm7.993 2.416c-1.29 1.473-2.109 3.33-2.316 5.21h-3.802v-5.75h.937a4.693 4.693 0 0 0 4.688-4.689V13.31a.938.938 0 0 0-.937-.938H22.75a4.684 4.684 0 0 0-3.75 1.88 4.684 4.684 0 0 0-3.75-1.878h-1.876a.938.938 0 0 0-.937.937v1.875a4.693 4.693 0 0 0 4.688 4.688h.938v5.75h-3.8a9.31 9.31 0 0 0-2.273-5.157c-2.003-2.251-2.785-5.269-2.147-8.279.851-4.013 4.51-7.352 9.22-7.311a9.367 9.367 0 0 1 6.993 15.538Zm-6.118-2.416v-.938a2.816 2.816 0 0 1 2.813-2.812h.937v.937a2.816 2.816 0 0 1-2.813 2.813h-.937Zm-14.127-3.75H3.936a.938.938 0 0 0 0 1.875H5.81a.938.938 0 0 0 0-1.875ZM6.2 9.56 4.872 8.234A.938.938 0 1 0 3.547 9.56l1.326 1.326A.938.938 0 1 0 6.2 9.56Zm0 9.925a.937.937 0 0 0-1.327 0l-1.325 1.326a.938.938 0 0 0 1.325 1.326L6.2 20.811a.938.938 0 0 0 0-1.326Zm27.864-5.237h-1.875a.938.938 0 0 0 0 1.875h1.875a.938.938 0 0 0 0-1.875Zm.388-6.014a.938.938 0 0 0-1.325 0L31.8 9.56a.937.937 0 1 0 1.326 1.326l1.326-1.326a.937.937 0 0 0 0-1.326Zm0 12.577-1.325-1.326a.938.938 0 1 0-1.327 1.326l1.326 1.326a.938.938 0 1 0 1.326-1.326Z" fill="#203CA7"/></svg>