<svg width="24" height="24" viewBox="0 0 24 24" fill="none" xmlns="http://www.w3.org/2000/svg">
<path d="M21.7338 11.3571L19.461 9.08441C19.201 8.82435 18.8099 8.74671 18.4703 8.88732C18.1306 9.02805 17.9091 9.35956 17.9091 9.7272V11.0909H2.90909C2.40703 11.0909 2 11.4979 2 12C2 12.5021 2.40703 12.9091 2.90909 12.9091H17.9091V14.2727C17.9091 14.6404 18.1305 14.9719 18.4703 15.1126C18.5827 15.1591 18.7009 15.1818 18.818 15.1818C19.0545 15.1818 19.2871 15.0894 19.461 14.9155L21.7337 12.6428C22.0888 12.2877 22.0888 11.7122 21.7338 11.3571Z" fill="black"/>
</svg>
