<svg width="38" height="38" fill="none" xmlns="http://www.w3.org/2000/svg"><path d="M34.467 28.067a.533.533 0 1 0 0-1.067h-.533a.533.533 0 1 0-1.067 0h-8.533a.533.533 0 1 0-1.067 0h-.533a.533.533 0 0 0 0 1.067h.533v1.6h-.533a.533.533 0 1 0 0 1.066h.533v.534h-.533a.533.533 0 0 0 0 1.067h.533v1.6H14.2V29.52a5.3 5.3 0 0 0 2.585.68 5.495 5.495 0 0 0 5.416-5.56 5.554 5.554 0 0 0-3.037-4.994c.618-.841.949-1.86.944-2.903a4.815 4.815 0 0 0-3.855-4.758A4.125 4.125 0 0 0 12.6 6.16l-.046.002a3.732 3.732 0 0 0-7.389.086 2.667 2.667 0 0 0 .502 5.287h3.109c.048.153.105.303.17.45a4.818 4.818 0 0 0-3.853 4.76 4.869 4.869 0 0 0 .944 2.903A5.554 5.554 0 0 0 3 24.641a5.495 5.495 0 0 0 5.416 5.56 5.283 5.283 0 0 0 2.584-.68v4.413H3.534a.533.533 0 0 0 0 1.066h30.933a.533.533 0 1 0 0-1.066h-.533v-1.6h.533a.533.533 0 1 0 0-1.067h-.533v-.533h.533a.533.533 0 1 0 0-1.067h-.533v-1.6h.533ZM8.58 10.282c0 .062.007.123.01.185H5.667a1.6 1.6 0 0 1 0-3.2.533.533 0 0 0 .533-.534 2.661 2.661 0 0 1 5.292-.411 4.114 4.114 0 0 0-2.912 3.96Zm4.554 23.652h-1.067v-5.197c.191-.178.37-.37.533-.573.164.204.343.395.534.573v5.197Zm.065-6.778 3.512-3.512a.533.533 0 0 0-.754-.754l-2.823 2.823v-5.425l2.51-2.51a.533.533 0 0 0-.754-.755l-1.756 1.756v-2.445a.533.533 0 0 0-1.067 0v2.445l-1.756-1.756a.533.533 0 0 0-.754.754l2.51 2.51v5.426L9.244 22.89a.533.533 0 0 0-.754.754l3.512 3.512a4.27 4.27 0 0 1-3.586 1.978 4.427 4.427 0 0 1-4.349-4.493 4.465 4.465 0 0 1 3.023-4.278.533.533 0 0 0 .207-.886 3.8 3.8 0 0 1-1.138-2.733 3.714 3.714 0 0 1 3.61-3.777.532.532 0 0 0 .489-.846 3.091 3.091 0 0 1-.612-1.839A3.01 3.01 0 0 1 12.6 7.226a3.01 3.01 0 0 1 2.954 3.056 3.092 3.092 0 0 1-.61 1.84.53.53 0 0 0-.038.555c.094.18.28.293.484.292a3.719 3.719 0 0 1 3.651 3.775 3.8 3.8 0 0 1-1.137 2.733.533.533 0 0 0 .206.886 4.513 4.513 0 0 1-1.325 8.77 4.27 4.27 0 0 1-3.586-1.977Zm19.668 6.778h-8.533v-1.6h8.533v1.6Zm0-2.667h-8.533v-.533h8.533v.533Zm0-1.6h-8.533v-1.6h8.533v1.6Zm-6.933-13.334h6.4a2.667 2.667 0 0 0 .502-5.286 3.734 3.734 0 0 0-7.404 0 2.667 2.667 0 0 0 .502 5.286Zm0-4.266a.533.533 0 0 0 .533-.534 2.667 2.667 0 0 1 5.334 0 .533.533 0 0 0 .533.534 1.6 1.6 0 0 1 0 3.2h-6.4a1.6 1.6 0 0 1 0-3.2Z" fill="#fff"/></svg>