<svg width="38" height="38" fill="none" xmlns="http://www.w3.org/2000/svg"><path d="M34.375 30.416h-2.234v-5.794a.628.628 0 0 0-.625-.632H20.409a.628.628 0 0 0-.625.632v5.794h-2.457a6.27 6.27 0 0 0 .903-3.254 6.265 6.265 0 0 0-3.32-5.54v-2.256a.628.628 0 0 0-.624-.631h-1.617v-1.442c.614-.093 1.19-.322 1.623-.69.237-.2.611-.604.736-1.226.6.204 1.137.077 1.43-.03 1.413-.522 2.502-2.426 2.241-3.919a2.193 2.193 0 0 0-.686-1.259c.472-.42.632-.95.686-1.258.261-1.493-.828-3.397-2.241-3.918a2.153 2.153 0 0 0-1.43-.031 2.189 2.189 0 0 0-.736-1.227c-1.155-.98-3.34-.98-4.496 0a2.19 2.19 0 0 0-.735 1.227 2.153 2.153 0 0 0-1.43.031C6.218 5.514 5.13 7.418 5.39 8.911a2.2 2.2 0 0 0 .685 1.259c-.471.42-.631.95-.685 1.258-.261 1.493.828 3.397 2.241 3.918.293.108.83.235 1.43.032a2.19 2.19 0 0 0 .736 1.226c.432.367 1.01.597 1.622.689v1.442H9.803a.628.628 0 0 0-.625.631v2.257a6.265 6.265 0 0 0-3.319 5.54 6.27 6.27 0 0 0 .903 3.253H3.625a.628.628 0 0 0-.625.631v1.564C3 33.928 4.06 35 5.364 35h27.272C33.939 35 35 33.928 35 32.611v-1.564a.628.628 0 0 0-.625-.631ZM10.593 13.962a.634.634 0 0 0-.227-.863.621.621 0 0 0-.854.23c-.647 1.128-1.253.904-1.452.83-.841-.31-1.594-1.624-1.44-2.511.1-.562.583-.847 1.44-.847a.628.628 0 0 0 .625-.631.628.628 0 0 0-.625-.632c-.857 0-1.34-.285-1.44-.847-.154-.887.599-2.201 1.44-2.511.199-.074.805-.297 1.452.83a.622.622 0 0 0 .854.23.633.633 0 0 0 .227-.863c-.643-1.122-.153-1.538.007-1.674.689-.584 2.2-.584 2.889 0 .16.136.65.552.007 1.674a.634.634 0 0 0 .227.863.621.621 0 0 0 .854-.23c.647-1.127 1.253-.904 1.452-.83.841.31 1.594 1.624 1.44 2.511-.1.562-.584.847-1.44.847a.628.628 0 0 0-.626.632c0 .348.28.631.626.631.857 0 1.34.285 1.44.847.154.887-.599 2.202-1.44 2.512-.199.073-.805.297-1.452-.831a.621.621 0 0 0-.854-.23.632.632 0 0 0-.227.863c.643 1.123.153 1.538-.007 1.675-.689.584-2.2.584-2.889 0-.16-.137-.65-.553-.007-1.675Zm10.441 11.291h9.857v5.163h-9.857v-5.163ZM7.11 27.162a4.994 4.994 0 0 1 2.946-4.565.632.632 0 0 0 .373-.578v-2.021h3.233v2.021c0 .25.146.477.373.578a4.994 4.994 0 0 1 2.946 4.565 4.992 4.992 0 0 1-1.195 3.254h-7.48a4.992 4.992 0 0 1-1.196-3.254Zm26.641 5.449c0 .62-.5 1.126-1.114 1.126H5.364A1.122 1.122 0 0 1 4.25 32.61v-.932h29.5v.932Z" fill="#fff"/><path d="M14.594 10.17c0-1.417-1.144-2.57-2.55-2.57-1.405 0-2.549 1.153-2.549 2.57 0 1.416 1.144 2.57 2.55 2.57 1.405 0 2.549-1.153 2.549-2.57Zm-3.849 0c0-.721.583-1.307 1.3-1.307.716 0 1.299.586 1.299 1.307 0 .72-.583 1.306-1.3 1.306a1.304 1.304 0 0 1-1.299-1.306Zm17.633 17.033h-4.83a.628.628 0 0 0-.625.631c0 .35.28.632.625.632h4.83a.628.628 0 0 0 .625-.632.628.628 0 0 0-.625-.631Z" fill="#fff"/></svg>