<svg width="38" height="38" fill="none" xmlns="http://www.w3.org/2000/svg"><path d="m28.849 19.844-4.115-3.964 2.223-5.298a.757.757 0 0 0-.407-.987.744.744 0 0 0-.655.038l-4.982 2.728-4.242-3.806a.752.752 0 0 0-1.244.693l1.002 5.667-4.883 2.924a.75.75 0 0 0-.256 1.033c.12.195.316.331.542.361l2.962.407-11.16 11.154a2.156 2.156 0 0 0 0 3.052 2.163 2.163 0 0 0 3.051.007l.008-.008 11.334-11.341.678 3.12c.068.316.332.55.648.588.03 0 .06.007.09.007a.748.748 0 0 0 .679-.43l2.48-5.177 5.651.52a.753.753 0 0 0 .596-1.288ZM5.615 32.783a.646.646 0 0 1-.92 0 .646.646 0 0 1 0-.92L8.63 27.93l.919.92-3.934 3.933Zm5.004-5.004-.92-.92 6.964-6.963.814.113.166.747-7.024 7.023Zm11.598-8.712a.751.751 0 0 0-.746.422l-1.756 3.67-.867-3.986a.763.763 0 0 0-.633-.588l-4.054-.557 3.49-2.088a.746.746 0 0 0 .353-.776l-.708-4.032 3.022 2.706a.753.753 0 0 0 .866.098l3.557-1.952-1.59 3.783a.755.755 0 0 0 .174.836l2.939 2.834-4.047-.37Zm5.117 8.071-2.103-3.067a.753.753 0 0 0-1.04-.218.753.753 0 0 0-.218 1.04c.007.007.015.015.015.03l2.102 3.067a.751.751 0 0 0 1.048.196.752.752 0 0 0 .196-1.048ZM21.644 3.52a.756.756 0 0 0-.753.754v3.633c0 .414.339.753.753.753a.756.756 0 0 0 .754-.753V4.274a.756.756 0 0 0-.754-.753Zm13.331 9.767a.758.758 0 0 0-.897-.542l-4.845 1.213a.754.754 0 1 0 .339 1.47c.008 0 .015-.008.023-.008l4.845-1.213c.4-.106.64-.52.535-.92Zm-23.278-1.002-3.595-.603a.741.741 0 0 0-.859.626.756.756 0 0 0 .603.866l3.595.603c.045.008.082.008.128.008a.756.756 0 0 0 .128-1.5Z" fill="#203CA7"/></svg>