<svg width="38" height="38" fill="none" xmlns="http://www.w3.org/2000/svg"><path d="m13.315 29.101 6.04-3.588L35 6.919 31.118 3 12.696 18.79l-3.556 6.1a4.664 4.664 0 0 0-3.819 1.359c-1.414 1.428-1.107 2.98-.882 4.113.233 1.176.319 1.826-.448 2.6l-.991 1 1.295.543c2.71 1.043 5.823.401 7.673-1.548a4.762 4.762 0 0 0 1.347-3.855Zm-2.52-3.319 2.822-4.84 3.607 3.641-4.795 2.849-1.634-1.65ZM32.452 7.023l-13.764 16.36-3.882-3.918L31.014 5.572l1.438 1.451ZM6.18 33.051c.482-1.118.266-2.205.097-3.061-.227-1.143-.306-1.722.37-2.404A2.806 2.806 0 0 1 9.15 26.8l2.272 2.293c.159.889-.1 1.84-.78 2.526-1.514 1.528-3.311 1.6-4.461 1.433Z" fill="#203CA7"/></svg>